{"title":"The.Littlest.Hobo.1958.VHSRip.AVC-FerL.mp4","uid":9006203,"size":770076737,"categoryP":"video","categoryS":"movies","magnet":"?xt=urn:btih:926988bf5d37cd962e65867a28683e74d0c79f46&amp;dn=The.Littlest.Hobo.1958.VHSRip.AVC-FerL.mp4&amp;tr=udp%3A%2F%2Ftracker.openbittorrent.com%3A80&amp;tr=udp%3A%2F%2Fopen.demonii.com%3A1337&amp;tr=udp%3A%2F%2Ftracker.coppersurfer.tk%3A6969&amp;tr=udp%3A%2F%2Fexodus.desync.com%3A6969","seeders":0,"leechers":1,"uploader":"acayouche","files":-1,"time":1381033681,"description":" &lt;a href=&quot;http://www.imdb.com/title/tt0051870/&quot; rel=&quot;nofollow&quot; target=&quot;_NEW&quot;&gt;http://www.imdb.com/title/tt0051870/&lt;/a&gt;\n\n\nThe Littlest Hobo(1958)\n\nBrief Synopsis\n\nBuddy Hart, Wendy Stuart, Carlyle Mitchell, Howard Hoffman, Robert Kline. London, a freight car riding canine, rescues Fleecie the lamb from an untimely end in a slaughterhouse. After this exciting experience, they wander on to the grounds of the governor's estate where they inspire the governor's paralyzed daughter to walk. \n\nRuntime - 77 Mins\n\n\t\t  \t \nThe.Littlest.Hobo.1958.VHSRip.AVC-FerL.mp4\nFormat                                   : MPEG-4\nFormat profile                           : Base Media\nCodec ID                                 : isom\nFile size                                : 734 MiB\nDuration                                 : 1h 16mn\nOverall bit rate                         : 1 337 Kbps\nMovie name                               : The.Littlest.Hobo.1958.VHSRip.AVC-FerL.mp4\nWriting application                      : Lavf53.24.0\n\nVideo\nID                                       : 1\nFormat                                   : AVC\nFormat/Info                              : Advanced Video Codec\nFormat profile                           : &lt;a class=&quot;__cf_email__&quot; href=&quot;/cdn-cgi/l/email-protection&quot; data-cfemail=&quot;84ccede3ecc4c8b7aab4&quot;&gt;[email&amp;#160;protected]&lt;/a&gt;&lt;script cf-hash='f9e31' type=&quot;text/javascript&quot;&gt;\n/* &lt;![CDATA[ */!function(){try{var t=&quot;currentScript&quot;in document?document.currentScript:function(){for(var t=document.getElementsByTagName(&quot;script&quot;),e=t.length;e--;)if(t[e].getAttribute(&quot;cf-hash&quot;))return t[e]}();if(t&amp;&amp;t.previousSibling){var e,r,n,i,c=t.previousSibling,a=c.getAttribute(&quot;data-cfemail&quot;);if(a){for(e=&quot;&quot;,r=parseInt(a.substr(0,2),16),n=2;a.length-n;n+=2)i=parseInt(a.substr(n,2),16)^r,e+=String.fromCharCode(i);e=document.createTextNode(e),c.parentNode.replaceChild(e,c)}}}catch(u){}}();/* ]]&gt; */&lt;/script&gt;\nFormat settings, CABAC                   : Yes\nFormat settings, ReFrames                : 3 frames\nCodec ID                                 : avc1\nCodec ID/Info                            : Advanced Video Coding\nDuration                                 : 1h 16mn\nBit rate                                 : 1 200 Kbps\nWidth                                    : 640 pixels\nHeight                                   : 480 pixels\nDisplay aspect ratio                     : 4:3\nFrame rate mode                          : Constant\nFrame rate                               : 29.970 fps\nColor space                              : YUV\nChroma subsampling                       : 4:2:0\nBit depth                                : 8 bits\nScan type                                : Progressive\nBits/(Pixel*Frame)                       : 0.130\nStream size                              : 659 MiB (90%)\nWriting library                          : x264 core 106 Ubuntu_2:0.106.1741-3\nEncoding settings                        : cabac=1 // deblock=1:0:0 / analyse=0x3:0x113 / me=hex / subme=7 / psy=1 / psy_rd=1.00:0.00 // me_range=16 / chroma_me=1 / trellis=1 / 8x8dct=1 / cqm=0 / deadzone=21,11 / fast_pskip=1 / chroma_qp_offset=-2 / threads=6 / sliced_threads=0 / nr=0 / decimate=1 / interlaced=0 / constrained_intra=0 / bframes=3 / b_pyramid=1 / b_adapt=1 / b_bias=0 / direct=1 / weightb=1 / open_gop=0 / weightp=2 / keyint=250 / keyint_min=25 / scenecut=40 / intra_refresh=0 / rc_lookahead=40 / rc=2pass / mbtree=1 / bitrate=1200 / ratetol=1.0 / qcomp=0.60 / qpmin=10 / qpmax=51 / qpstep=4 / cplxblur=20.0 / qblur=0.5 / ip_ratio=1.40 / aq=1:1.00\n\nAudio\nID                                       : 2\nFormat                                   : AAC\nFormat/Info                              : Advanced Audio Codec\nFormat profile                           : LC\nCodec ID                                 : 40\nDuration                                 : 1h 16mn\nBit rate mode                            : Constant\nBit rate                                 : 128 Kbps\nChannel(s)                               : 2 channels\nChannel positions                        : Front: L R\nSampling rate                            : 48.0 KHz\nCompression mode                         : Lossy\nDelay relative to video                  : 67ms\nStream size                              : 70.3 MiB (10%)\n\n\n","torrent":{"xt":"urn:btih:926988bf5d37cd962e65867a28683e74d0c79f46","amp;dn":"The.Littlest.Hobo.1958.VHSRip.AVC-FerL.mp4","amp;tr":["udp%3A%2F%2Ftracker.openbittorrent.com%3A80","udp%3A%2F%2Fopen.demonii.com%3A1337","udp%3A%2F%2Ftracker.coppersurfer.tk%3A6969","udp%3A%2F%2Fexodus.desync.com%3A6969"],"infoHash":"926988bf5d37cd962e65867a28683e74d0c79f46","infoHashBuffer":{"type":"Buffer","data":[146,105,136,191,93,55,205,150,46,101,134,122,40,104,62,116,208,199,159,70]},"announce":[],"urlList":[]}}